<?xml version="1.0" standalone="no"?>
<!DOCTYPE svg PUBLIC "-//W3C//DTD SVG 20010904//EN"
 "http://www.w3.org/TR/2001/REC-SVG-20010904/DTD/svg10.dtd">
<svg version="1.0" xmlns="http://www.w3.org/2000/svg"
 width="512.000000pt" height="512.000000pt" viewBox="0 0 512.000000 512.000000"
 preserveAspectRatio="xMidYMid meet">
<metadata>
Created by potrace 1.14, written by Peter Selinger 2001-2017
</metadata>
<g transform="translate(0.000000,512.000000) scale(0.100000,-0.100000)"
fill="#000000" stroke="none">
<path d="M2578 4647 c-54 -16 -119 -56 -161 -101 -33 -36 -77 -117 -77 -143 0
-30 -15 -44 -51 -48 -20 -3 -43 -15 -56 -30 -22 -25 -23 -33 -23 -221 l0 -194
-28 0 c-16 0 -41 11 -58 24 -52 44 -408 268 -445 281 -61 22 -134 25 -193 10
-268 -70 -332 -407 -109 -575 33 -25 68 -50 78 -55 17 -10 15 -15 -17 -75 -19
-36 -63 -119 -98 -185 -35 -66 -71 -135 -81 -154 -20 -37 -17 -74 8 -102 13
-15 10 -26 -26 -90 -30 -56 -46 -75 -63 -77 -58 -7 -67 -13 -101 -74 -70 -126
-107 -207 -121 -268 -8 -35 -19 -66 -23 -70 -4 -5 -26 -10 -48 -13 -105 -15
-378 -58 -446 -71 -212 -41 -371 -195 -413 -398 -16 -77 -12 -163 9 -194 31
-47 51 -49 466 -49 214 0 389 -3 389 -8 0 -4 -16 -39 -35 -77 l-35 -69 -52 16
c-54 16 -216 23 -273 12 -230 -47 -418 -226 -479 -459 -20 -80 -14 -237 13
-322 49 -153 161 -285 303 -357 102 -51 186 -70 303 -66 129 5 228 39 335 118
251 184 320 541 156 804 -36 58 -126 157 -158 174 -15 8 -11 21 40 119 31 61
59 110 63 110 3 0 14 -37 24 -82 61 -280 116 -401 240 -523 79 -79 114 -104
210 -150 154 -75 188 -79 735 -79 420 1 482 3 535 18 100 29 172 68 237 130
l26 25 127 -49 c70 -27 129 -51 131 -53 2 -2 7 -24 10 -48 25 -180 151 -358
313 -443 344 -180 756 -9 871 363 41 132 28 304 -31 424 -16 32 -29 60 -29 62
0 3 26 5 58 5 l58 0 44 -62 c23 -34 49 -68 56 -77 7 -9 48 -63 91 -120 84
-113 125 -145 182 -143 76 3 132 44 153 115 13 41 10 53 -62 327 -17 63 -33
129 -36 145 -60 351 -256 671 -538 882 -98 73 -350 208 -368 197 -4 -3 -8 1
-8 8 0 8 16 20 36 27 46 17 107 72 128 116 52 109 4 244 -107 300 l-51 25
-805 0 c-900 0 -862 3 -939 -70 -90 -84 -94 -105 -94 -455 0 -162 3 -302 6
-312 3 -10 8 -34 12 -53 3 -19 7 -39 8 -45 2 -5 6 -28 10 -50 4 -22 12 -53 17
-70 4 -16 11 -46 14 -65 3 -19 10 -53 15 -75 5 -22 12 -56 15 -75 3 -19 10
-51 15 -70 5 -19 12 -48 14 -65 3 -16 8 -41 12 -55 16 -71 39 -65 -261 -65
-148 -1 -284 3 -301 7 -17 4 -40 18 -51 30 -20 22 -26 44 -73 243 -12 50 -28
117 -36 150 -8 33 -16 69 -18 80 -2 11 -14 60 -26 110 -44 182 -34 242 77 455
47 91 96 183 108 205 12 22 48 90 80 150 31 61 79 151 105 200 27 50 71 133
99 185 l50 95 214 0 c201 1 216 3 257 24 129 67 155 233 51 330 -47 45 -98 59
-211 60 -57 1 -106 4 -108 6 -4 3 -6 176 -3 230 1 14 9 8 32 -25 145 -208 467
-189 583 35 115 224 -34 488 -283 501 -36 2 -87 -2 -113 -9z"/>
</g>
</svg>
